<svg xmlns="http://www.w3.org/2000/svg" pointer-events="none" class="leaflet-zoom-animated" width="1102" height="606" viewBox="498 393 1102 606" style="transform: translate3d(498px, 393px, 0px);"><g><path class="leaflet-interactive" stroke="black" stroke-opacity="1" stroke-width="2" stroke-linecap="round" stroke-linejoin="round" fill="#fff" fill-opacity="0.2" fill-rule="evenodd" d="M1196 590L1191 590L1191 584L1192 585L1194 582L1192 580L1191 581L1188 578L1181 582L1178 579L1173 584L1175 585L1168 595L1169 599L1166 602L1160 600L1160 597L1158 595L1157 596L1159 598L1157 598L1157 600L1155 598L1155 595L1153 595L1148 596L1140 602L1140 604L1142 604L1147 600L1152 601L1149 607L1150 612L1152 614L1148 616L1144 613L1138 613L1135 615L1133 613L1134 610L1131 607L1129 607L1126 609L1127 610L1125 612L1127 616L1126 615L1121 618L1123 620L1122 619L1120 623L1123 626L1123 631L1120 629L1121 628L1114 620L1111 621L1105 615L1103 615L1098 620L1099 621L1093 621L1095 623L1094 625L1092 624L1090 638L1086 638L1074 642L1072 644L1067 643L1069 642L1066 635L1063 639L1060 630L1056 635L1049 638L1049 631L1047 632L1044 628L1045 626L1043 623L1038 624L1039 617L1033 613L1033 609L1022 613L1022 617L1019 617L1016 622L1017 627L1019 627L1019 632L1017 634L1018 635L1012 635L1011 640L997 640L990 647L980 652L969 655L968 654L965 656L964 655L963 656L967 663L965 670L963 669L963 671L959 673L955 679L950 674L950 672L941 674L933 668L931 669L928 666L921 666L917 657L907 658L903 653L895 658L892 662L891 668L881 671L879 676L874 677L872 680L866 677L861 672L859 672L855 678L857 679L862 694L865 694L864 697L866 697L870 701L871 692L874 691L885 694L893 692L897 697L899 697L902 700L900 704L905 709L903 712L901 712L901 714L908 719L907 717L909 715L916 721L922 722L924 714L930 714L931 721L939 718L941 719L941 722L945 719L947 720L948 715L954 715L957 718L957 720L960 722L959 724L966 732L966 735L962 738L964 743L961 751L963 754L961 754L961 756L954 762L953 759L948 758L946 756L942 757L942 760L934 765L930 765L934 768L934 770L933 771L932 769L927 772L923 777L925 780L924 781L926 782L925 788L937 790L941 794L943 794L946 799L949 797L953 798L955 794L963 794L967 795L971 800L970 801L976 804L983 800L984 801L988 797L990 799L992 798L996 803L998 801L1003 806L1008 807L1007 810L1003 812L1004 814L1002 815L1003 816L1000 819L999 823L994 821L993 822L990 831L992 836L990 838L991 840L995 840L999 848L997 850L999 852L998 854L1000 857L998 863L999 866L1002 862L1006 865L1013 865L1015 869L1018 867L1021 868L1022 871L1019 873L1019 875L1024 877L1031 883L1034 884L1037 881L1042 888L1041 891L1043 891L1047 887L1049 887L1050 891L1052 892L1054 890L1064 890L1066 888L1072 887L1075 888L1076 892L1078 892L1080 895L1086 895L1089 897L1095 896L1092 894L1098 891L1099 892L1096 897L1097 898L1103 895L1114 894L1122 885L1128 889L1126 891L1128 891L1129 888L1130 891L1138 889L1143 892L1156 893L1157 895L1155 898L1150 899L1149 902L1157 906L1167 902L1181 902L1186 896L1186 894L1191 900L1196 901L1197 898L1195 894L1195 889L1197 886L1198 889L1206 886L1205 885L1207 877L1211 871L1215 873L1219 870L1223 870L1226 872L1230 869L1232 871L1237 870L1234 864L1235 854L1232 852L1234 850L1236 852L1238 849L1243 852L1242 853L1244 853L1247 849L1252 853L1255 850L1253 846L1255 846L1258 843L1262 844L1259 838L1257 837L1257 833L1255 830L1259 830L1261 822L1263 824L1265 822L1268 823L1269 820L1272 821L1274 818L1278 818L1281 815L1279 812L1289 811L1299 801L1299 797L1303 791L1303 789L1300 788L1299 783L1301 782L1298 774L1300 772L1299 769L1301 767L1301 761L1303 761L1305 758L1307 750L1313 748L1315 749L1315 747L1318 744L1315 743L1316 738L1321 735L1328 737L1328 731L1331 729L1330 728L1335 727L1336 724L1332 717L1332 707L1334 708L1337 705L1339 705L1344 699L1343 694L1339 690L1340 684L1335 679L1337 672L1340 671L1338 669L1332 670L1329 668L1321 668L1318 670L1316 675L1313 675L1312 678L1304 675L1306 670L1304 660L1306 658L1303 655L1306 652L1302 649L1303 646L1300 643L1299 645L1296 645L1294 642L1292 642L1289 647L1282 650L1281 657L1277 657L1274 659L1275 655L1273 654L1274 653L1272 650L1275 642L1283 637L1282 632L1287 626L1289 627L1295 621L1297 615L1295 603L1297 600L1298 601L1304 598L1303 592L1307 591L1305 589L1300 590L1300 588L1298 588L1294 592L1288 585L1289 580L1293 574L1292 571L1295 564L1293 562L1289 562L1289 560L1287 559L1276 557L1276 555L1274 554L1272 554L1272 561L1270 563L1270 561L1261 563L1258 562L1259 559L1251 559L1251 557L1247 561L1244 568L1242 568L1235 574L1233 582L1231 584L1227 583L1224 576L1222 580L1218 580L1216 578L1218 572L1217 569L1209 567L1205 571L1203 579L1198 579L1197 581L1200 587L1197 591zM895 658L895 659zM1152 931L1153 932L1156 929L1155 927L1152 929zM1160 939L1160 938zM1137 890L1136 891L1138 892z"/><path class="leaflet-interactive" stroke="#333" stroke-opacity="1" stroke-width="1" stroke-linecap="round" stroke-linejoin="round" stroke-dasharray="1,6" fill="#eee" fill-opacity="0.5" fill-rule="evenodd" d="M1161 773L1155 773L1152 771L1152 769L1151 771L1148 768L1143 768L1141 765L1142 764L1135 759L1136 757L1132 746L1134 744L1133 740L1129 737L1128 739L1127 738L1122 741L1115 747L1114 746L1114 741L1112 738L1110 738L1111 737L1109 737L1113 731L1110 726L1114 724L1110 721L1106 723L1106 728L1105 730L1103 730L1103 732L1101 733L1102 735L1100 737L1098 737L1099 736L1098 737L1095 732L1093 736L1092 734L1088 738L1086 737L1083 740L1085 743L1081 750L1079 747L1075 751L1071 751L1065 755L1065 762L1072 764L1074 762L1075 763L1071 770L1068 769L1063 774L1055 774L1056 776L1054 779L1050 777L1048 778L1049 776L1043 776L1039 784L1043 787L1040 790L1047 790L1049 792L1049 801L1051 804L1055 803L1055 801L1058 800L1060 800L1060 802L1063 803L1063 801L1059 798L1066 797L1066 799L1069 802L1081 805L1081 808L1084 809L1082 815L1085 818L1088 814L1089 817L1088 820L1082 823L1084 825L1081 828L1083 830L1088 831L1088 835L1090 835L1089 837L1091 839L1091 842L1094 844L1098 843L1097 845L1098 847L1100 847L1100 849L1108 845L1113 847L1115 846L1114 845L1119 837L1118 834L1121 834L1123 832L1125 833L1127 831L1129 832L1128 829L1135 827L1137 825L1139 828L1142 828L1145 825L1148 828L1156 828L1157 825L1159 825L1159 827L1164 829L1167 827L1165 824L1169 819L1176 820L1187 815L1183 809L1179 809L1181 806L1179 806L1176 803L1178 802L1171 798L1167 792L1169 788L1166 786L1163 787L1163 777L1160 774L1161 775L1161 773z"/><path class="leaflet-interactive" stroke="#333" stroke-opacity="1" stroke-width="1" stroke-linecap="round" stroke-linejoin="round" stroke-dasharray="1,6" fill="#eee" fill-opacity="0.5" fill-rule="evenodd" d="M1219 691L1222 684L1222 677L1217 678L1215 675L1213 677L1210 675L1210 673L1208 673L1207 668L1205 670L1204 667L1201 665L1187 663L1187 655L1189 649L1188 642L1193 637L1195 625L1196 626L1195 622L1197 617L1194 612L1199 606L1197 604L1199 601L1193 595L1193 593L1196 590L1191 590L1190 587L1191 584L1192 585L1194 582L1192 580L1191 581L1188 578L1181 582L1178 579L1173 584L1175 585L1168 595L1169 599L1166 602L1160 600L1160 597L1158 595L1157 596L1159 598L1157 598L1157 600L1155 598L1155 595L1148 596L1144 600L1142 600L1140 604L1144 603L1147 600L1152 601L1149 607L1150 612L1152 614L1148 616L1144 613L1138 613L1135 615L1133 613L1134 610L1131 607L1126 609L1127 610L1125 612L1127 616L1123 616L1121 618L1123 620L1122 619L1120 623L1123 626L1122 627L1125 638L1129 640L1128 642L1127 641L1126 645L1131 645L1131 643L1134 645L1137 642L1141 642L1140 643L1143 644L1146 640L1148 641L1150 638L1153 641L1154 645L1152 651L1146 656L1146 658L1149 659L1153 656L1157 659L1157 665L1155 667L1149 665L1148 668L1144 670L1144 672L1142 673L1145 676L1144 678L1142 678L1140 680L1141 681L1136 685L1143 690L1148 689L1150 691L1147 693L1147 697L1142 697L1141 704L1143 706L1142 708L1145 714L1154 717L1152 719L1156 719L1157 722L1161 721L1162 719L1165 720L1165 723L1168 724L1170 730L1173 730L1179 725L1179 720L1183 719L1186 713L1190 713L1198 705L1202 705L1201 704L1205 702L1207 704L1205 704L1205 706L1207 707L1211 705L1213 703L1212 700L1216 690L1217 691z"/><path class="leaflet-interactive" stroke="#333" stroke-opacity="1" stroke-width="1" stroke-linecap="round" stroke-linejoin="round" stroke-dasharray="1,6" fill="#eee" fill-opacity="0.5" fill-rule="evenodd" d="M1282 657L1277 657L1274 659L1275 655L1273 654L1274 653L1272 650L1275 642L1283 637L1282 632L1287 626L1289 627L1295 621L1297 615L1295 603L1297 600L1298 601L1304 598L1303 592L1307 591L1305 589L1300 590L1300 588L1298 588L1294 592L1288 585L1289 580L1292 577L1292 571L1295 564L1293 562L1289 562L1289 560L1287 559L1276 557L1276 555L1274 554L1272 554L1272 561L1270 563L1270 561L1261 563L1258 562L1259 559L1251 559L1251 557L1247 561L1244 568L1242 568L1235 574L1233 582L1231 584L1227 583L1224 576L1222 580L1218 580L1216 578L1218 572L1217 569L1209 567L1205 571L1203 579L1198 579L1197 581L1200 587L1197 591L1196 590L1193 593L1193 595L1199 601L1197 603L1199 606L1194 611L1197 616L1195 622L1196 626L1195 625L1193 637L1188 642L1189 654L1187 654L1187 664L1191 663L1199 666L1201 664L1202 666L1204 666L1205 670L1207 668L1208 669L1207 673L1210 673L1211 676L1213 677L1215 675L1217 677L1222 677L1223 679L1221 679L1222 684L1219 692L1224 692L1223 695L1225 695L1223 697L1225 699L1228 698L1229 702L1235 700L1242 701L1241 698L1244 699L1246 695L1248 698L1250 695L1255 699L1261 701L1263 696L1265 696L1266 700L1268 701L1268 705L1271 702L1271 700L1274 702L1277 699L1273 697L1275 697L1278 691L1278 688L1274 683L1276 681L1275 679L1286 668L1286 660L1282 659L1282 657z"/><path class="leaflet-interactive" stroke="#333" stroke-opacity="1" stroke-width="1" stroke-linecap="round" stroke-linejoin="round" stroke-dasharray="1,6" fill="#eee" fill-opacity="0.5" fill-rule="evenodd" d="M1236 720L1237 725L1234 728L1234 731L1243 734L1243 737L1246 736L1249 739L1246 743L1248 745L1246 748L1249 750L1248 752L1251 754L1252 760L1249 763L1249 767L1247 768L1249 768L1249 770L1251 770L1254 773L1251 778L1246 780L1246 785L1249 787L1251 785L1254 785L1257 791L1259 789L1260 796L1258 801L1260 804L1263 804L1261 809L1262 812L1265 814L1268 820L1272 821L1274 818L1278 818L1281 815L1279 812L1289 811L1299 801L1299 797L1303 791L1303 789L1300 788L1299 783L1301 782L1298 774L1300 772L1299 769L1301 767L1301 761L1303 761L1306 756L1307 750L1313 748L1315 749L1315 747L1318 744L1315 743L1316 738L1318 736L1317 726L1311 723L1310 719L1313 717L1313 715L1308 711L1308 714L1306 715L1307 716L1301 718L1302 727L1299 732L1291 732L1289 727L1286 727L1282 734L1276 737L1277 739L1274 740L1272 748L1269 745L1269 738L1265 735L1267 734L1267 732L1262 727L1257 726L1259 722L1255 719L1257 711L1251 707L1251 702L1248 700L1247 695L1244 697L1244 699L1241 698L1242 701L1238 699L1237 701L1235 700L1233 702L1232 705L1235 704L1234 708L1235 707L1240 710L1240 712L1239 711L1237 713L1240 714L1237 716L1236 714L1234 717L1235 718L1233 719L1237 720z"/><path class="leaflet-interactive" stroke="#333" stroke-opacity="1" stroke-width="1" stroke-linecap="round" stroke-linejoin="round" stroke-dasharray="1,6" fill="#eee" fill-opacity="0.5" fill-rule="evenodd" d="M1186 869L1180 872L1174 869L1172 869L1172 871L1170 871L1169 869L1167 871L1165 869L1165 871L1163 871L1164 872L1162 873L1156 874L1154 872L1151 874L1147 874L1144 876L1145 877L1143 880L1137 882L1138 887L1140 891L1156 893L1157 895L1155 898L1150 899L1149 902L1157 906L1167 902L1181 902L1186 896L1186 894L1191 900L1196 901L1196 887L1192 887L1191 885L1192 870L1187 870zM1152 931L1153 932L1156 929L1155 927L1152 929zM1160 939L1160 938z"/><path class="leaflet-interactive" stroke="#333" stroke-opacity="1" stroke-width="1" stroke-linecap="round" stroke-linejoin="round" stroke-dasharray="1,6" fill="#eee" fill-opacity="0.5" fill-rule="evenodd" d="M1089 837L1082 840L1079 846L1077 846L1077 849L1072 848L1058 851L1061 855L1061 859L1055 865L1056 867L1053 870L1055 873L1055 878L1053 883L1049 887L1050 891L1052 892L1054 890L1064 890L1066 888L1072 887L1075 888L1076 892L1078 892L1080 895L1086 895L1089 897L1095 896L1092 894L1098 891L1099 892L1096 897L1097 898L1103 895L1112 895L1117 891L1121 885L1120 883L1115 882L1116 879L1112 873L1113 871L1104 868L1099 869L1099 867L1095 864L1095 861L1097 859L1095 859L1096 855L1094 853L1097 850L1099 850L1100 847L1098 847L1098 843L1093 843L1089 838z"/><path class="leaflet-interactive" stroke="#333" stroke-opacity="1" stroke-width="1" stroke-linecap="round" stroke-linejoin="round" stroke-dasharray="1,6" fill="#eee" fill-opacity="0.5" fill-rule="evenodd" d="M1186 869L1184 866L1185 862L1182 856L1183 850L1185 849L1185 843L1188 841L1190 842L1189 841L1192 838L1201 841L1202 837L1199 833L1203 828L1201 823L1198 822L1193 824L1189 820L1189 817L1187 818L1184 816L1180 819L1169 819L1165 824L1167 827L1164 829L1158 825L1158 827L1156 828L1149 828L1145 825L1144 827L1140 828L1137 825L1135 827L1133 826L1132 828L1128 829L1129 832L1126 833L1123 831L1121 834L1120 833L1118 835L1118 842L1114 847L1109 845L1105 846L1094 853L1096 855L1095 858L1097 859L1095 861L1095 864L1099 867L1099 869L1108 868L1112 870L1112 873L1116 878L1115 882L1120 883L1120 886L1122 885L1125 888L1126 887L1128 889L1126 891L1128 891L1129 888L1130 891L1138 889L1137 882L1143 880L1145 877L1144 876L1147 874L1151 874L1153 872L1155 874L1162 873L1165 871L1165 869L1167 871L1169 869L1170 871L1172 871L1172 869L1175 869L1176 871L1177 870L1180 872L1185 869zM1137 890L1136 891L1138 892z"/><path class="leaflet-interactive" stroke="#333" stroke-opacity="1" stroke-width="1" stroke-linecap="round" stroke-linejoin="round" stroke-dasharray="1,6" fill="#eee" fill-opacity="0.5" fill-rule="evenodd" d="M1189 817L1193 815L1194 812L1198 811L1195 805L1198 804L1199 801L1202 802L1200 796L1198 795L1199 796L1207 792L1215 798L1216 796L1219 801L1225 800L1226 803L1228 803L1228 799L1232 790L1235 791L1237 789L1243 789L1243 787L1246 785L1246 780L1253 776L1254 773L1251 770L1250 771L1249 768L1247 768L1249 767L1249 762L1252 760L1251 754L1246 747L1248 746L1248 744L1246 743L1249 739L1247 736L1243 737L1243 734L1234 731L1234 729L1237 726L1236 720L1231 722L1230 734L1228 731L1225 730L1223 733L1219 733L1216 737L1210 740L1206 747L1206 752L1204 755L1205 757L1202 763L1198 759L1195 762L1194 761L1192 765L1189 763L1182 772L1176 767L1171 767L1171 765L1169 764L1164 769L1160 770L1162 774L1160 774L1163 778L1163 787L1166 786L1169 788L1167 792L1174 800L1178 801L1176 803L1178 806L1181 806L1179 808L1184 810L1184 812L1187 815L1187 818L1189 817z"/><path class="leaflet-interactive" stroke="#333" stroke-opacity="1" stroke-width="1" stroke-linecap="round" stroke-linejoin="round" stroke-dasharray="1,6" fill="#eee" fill-opacity="0.5" fill-rule="evenodd" d="M1189 817L1190 821L1195 824L1197 822L1200 823L1203 827L1199 832L1202 836L1201 841L1199 842L1194 837L1189 841L1190 842L1188 841L1185 843L1185 848L1183 850L1182 855L1185 861L1185 869L1186 868L1187 870L1192 871L1191 885L1194 887L1196 886L1198 889L1206 886L1205 885L1207 877L1211 871L1215 873L1219 870L1223 870L1226 872L1230 869L1232 871L1236 871L1237 870L1234 864L1235 854L1232 852L1234 850L1236 852L1238 849L1243 852L1242 853L1244 853L1247 849L1252 853L1255 850L1253 846L1255 846L1258 843L1262 844L1259 838L1257 837L1257 833L1255 830L1259 830L1261 822L1263 824L1265 822L1269 822L1266 814L1262 813L1261 810L1263 804L1261 804L1258 801L1260 796L1259 789L1258 791L1257 789L1255 789L1254 786L1251 785L1249 787L1246 785L1239 790L1232 790L1228 798L1228 803L1226 803L1225 800L1219 801L1217 796L1213 797L1208 792L1204 792L1199 796L1198 795L1202 800L1200 801L1202 801L1199 801L1198 804L1196 803L1195 805L1198 811L1190 816z"/><path class="leaflet-interactive" stroke="#333" stroke-opacity="1" stroke-width="1" stroke-linecap="round" stroke-linejoin="round" stroke-dasharray="1,6" fill="#eee" fill-opacity="0.5" fill-rule="evenodd" d="M990 647L974 654L968 654L965 656L964 655L963 656L967 663L965 670L963 669L963 671L959 673L955 679L950 674L950 672L941 674L933 668L931 669L928 666L921 666L917 657L907 658L903 653L895 658L892 662L891 668L881 671L879 676L874 677L872 680L866 677L861 672L859 672L855 678L857 679L862 694L865 694L864 697L866 697L870 701L871 692L874 691L885 694L893 692L897 697L899 697L902 700L900 704L905 709L903 712L901 712L901 714L908 719L907 717L909 715L916 721L922 722L924 714L930 714L931 721L939 718L941 719L941 722L945 719L947 720L948 715L954 715L957 718L957 720L960 722L959 724L966 732L966 735L962 738L964 743L961 751L963 754L961 754L961 756L954 762L953 759L948 758L946 756L942 757L941 761L934 765L930 765L934 768L934 770L933 771L932 769L927 772L923 777L925 780L924 781L926 782L926 789L935 789L941 794L943 794L946 799L949 797L953 798L955 794L963 794L967 795L972 803L976 804L983 800L984 801L988 797L990 799L992 798L996 803L1006 789L1003 788L1004 781L1012 778L1014 773L1020 772L1022 774L1026 774L1031 770L1034 771L1038 769L1041 771L1043 775L1042 776L1044 777L1046 775L1048 776L1048 778L1049 777L1054 779L1056 777L1056 773L1063 774L1066 772L1067 769L1071 770L1075 763L1074 762L1072 764L1066 762L1065 760L1066 757L1063 752L1065 748L1071 746L1071 742L1069 740L1067 740L1065 737L1059 739L1055 737L1055 735L1052 734L1053 732L1051 731L1046 735L1042 729L1039 729L1036 723L1033 726L1029 725L1026 720L1022 719L1019 722L1014 717L1016 716L1015 715L1011 715L1009 710L1013 707L1011 703L1012 697L1008 694L1006 688L1003 686L1004 682L1002 680L998 680L1001 677L1006 676L1003 672L996 668L998 666L1004 668L1008 662L1000 652L1001 650L1003 650L1000 645L997 648L991 648zM895 658L895 659z"/><path class="leaflet-interactive" stroke="#333" stroke-opacity="1" stroke-width="1" stroke-linecap="round" stroke-linejoin="round" stroke-dasharray="1,6" fill="#eee" fill-opacity="0.5" fill-rule="evenodd" d="M1318 735L1328 737L1328 731L1331 729L1330 728L1335 727L1336 724L1332 717L1332 707L1334 708L1337 705L1339 705L1344 699L1343 694L1339 690L1340 684L1335 679L1337 672L1340 671L1338 669L1332 670L1329 668L1321 668L1318 670L1316 675L1313 675L1312 678L1304 675L1306 670L1304 660L1306 658L1303 655L1306 652L1302 649L1303 646L1300 643L1299 645L1296 645L1294 642L1292 642L1289 647L1282 650L1282 659L1286 661L1286 668L1279 676L1276 677L1276 680L1274 682L1278 688L1278 691L1275 697L1273 697L1277 698L1277 700L1274 702L1272 700L1268 705L1268 701L1266 700L1265 696L1263 696L1261 701L1255 699L1251 695L1249 696L1248 700L1251 701L1251 707L1257 711L1255 715L1256 721L1259 722L1257 726L1262 727L1267 732L1267 734L1265 734L1269 738L1268 739L1270 747L1273 746L1274 740L1277 739L1277 736L1278 737L1282 734L1286 727L1289 727L1291 732L1293 731L1299 733L1302 727L1301 718L1306 717L1308 712L1312 713L1313 717L1310 719L1310 721L1312 724L1313 723L1317 726L1317 733z"/><path class="leaflet-interactive" stroke="#333" stroke-opacity="1" stroke-width="1" stroke-linecap="round" stroke-linejoin="round" stroke-dasharray="1,6" fill="#eee" fill-opacity="0.5" fill-rule="evenodd" d="M990 647L993 649L998 648L1000 645L1002 646L1001 647L1003 649L1002 651L1000 651L1008 661L1004 668L1001 666L998 666L996 668L1003 672L1006 676L1001 677L998 680L1004 682L1004 687L1006 688L1008 694L1012 697L1011 703L1013 707L1009 710L1011 715L1015 715L1016 716L1014 717L1019 722L1022 719L1025 720L1029 725L1033 726L1035 723L1038 729L1042 729L1046 735L1050 731L1053 731L1052 733L1056 738L1059 739L1065 737L1067 740L1069 740L1071 742L1071 746L1064 749L1064 755L1067 753L1068 754L1071 751L1073 752L1079 747L1081 750L1082 746L1084 746L1085 744L1083 740L1086 737L1089 738L1091 734L1093 736L1095 732L1097 736L1100 737L1102 735L1101 734L1103 730L1106 729L1105 725L1107 722L1109 721L1112 723L1114 721L1119 723L1118 721L1121 720L1120 715L1121 713L1124 714L1126 712L1128 707L1126 706L1126 704L1130 701L1129 700L1131 697L1136 698L1138 704L1140 705L1142 703L1142 697L1147 697L1147 693L1150 691L1149 689L1144 690L1136 685L1141 682L1140 680L1142 678L1144 678L1145 676L1142 673L1149 665L1153 665L1154 667L1157 665L1157 659L1154 656L1153 658L1146 658L1146 656L1152 651L1154 645L1151 638L1148 641L1146 640L1144 644L1140 643L1141 642L1137 642L1134 645L1131 644L1129 646L1126 644L1129 640L1124 636L1124 632L1120 629L1121 628L1114 620L1109 620L1105 615L1103 615L1098 620L1099 621L1093 621L1095 623L1094 625L1092 624L1090 638L1086 638L1074 642L1072 644L1068 644L1067 643L1069 642L1067 636L1066 635L1063 639L1060 630L1056 635L1049 638L1049 631L1047 632L1044 628L1045 626L1043 623L1038 624L1039 617L1033 613L1033 609L1022 613L1022 617L1018 618L1016 622L1017 627L1019 627L1019 632L1017 634L1018 635L1012 635L1011 640L997 640L991 646z"/><path class="leaflet-interactive" stroke="#333" stroke-opacity="1" stroke-width="1" stroke-linecap="round" stroke-linejoin="round" stroke-dasharray="1,6" fill="#eee" fill-opacity="0.5" fill-rule="evenodd" d="M1141 705L1138 704L1138 701L1135 698L1131 697L1129 699L1129 702L1126 703L1127 707L1125 713L1121 713L1120 715L1121 720L1118 720L1119 722L1117 723L1114 721L1114 724L1110 726L1110 729L1112 729L1111 730L1113 731L1109 736L1114 741L1113 742L1115 746L1121 741L1127 738L1128 739L1129 737L1133 740L1134 743L1132 746L1134 749L1133 750L1136 757L1135 758L1142 764L1142 768L1150 769L1150 771L1153 769L1152 771L1154 773L1156 772L1159 775L1160 772L1161 773L1160 770L1164 769L1168 764L1174 768L1178 767L1181 772L1189 763L1193 765L1194 762L1198 759L1202 762L1205 757L1204 756L1206 752L1206 747L1211 739L1216 737L1220 732L1223 733L1224 730L1229 732L1230 734L1231 722L1237 719L1233 719L1236 714L1237 716L1241 714L1238 713L1240 711L1238 708L1234 708L1235 704L1232 705L1232 702L1228 702L1228 699L1225 699L1223 697L1225 695L1223 695L1224 692L1221 693L1216 690L1212 700L1213 703L1211 705L1207 707L1205 706L1205 704L1207 704L1205 702L1201 704L1202 705L1198 705L1198 707L1190 713L1186 713L1185 717L1178 721L1179 724L1174 730L1170 730L1168 724L1165 723L1165 720L1162 719L1160 722L1157 722L1156 719L1152 719L1154 717L1145 714L1142 705z"/><path class="leaflet-interactive" stroke="#333" stroke-opacity="1" stroke-width="1" stroke-linecap="round" stroke-linejoin="round" stroke-dasharray="1,6" fill="#eee" fill-opacity="0.5" fill-rule="evenodd" d="M997 801L999 801L999 803L1003 806L1008 807L1007 810L1003 812L1004 814L1002 815L1003 816L1000 819L999 823L994 821L993 822L990 831L992 836L990 838L991 840L995 840L999 848L997 850L999 852L998 854L1000 857L998 865L999 866L1002 862L1006 865L1013 865L1015 869L1018 867L1021 868L1022 871L1019 873L1019 875L1024 877L1031 883L1034 884L1037 881L1042 888L1041 891L1043 891L1047 887L1051 886L1051 884L1054 882L1055 874L1053 870L1056 867L1055 866L1058 863L1058 861L1062 857L1058 851L1071 848L1077 849L1078 845L1079 846L1082 840L1084 840L1085 838L1087 839L1090 836L1086 830L1083 830L1081 828L1084 825L1082 823L1083 821L1088 820L1088 814L1085 818L1082 815L1085 809L1082 808L1080 804L1069 802L1064 797L1059 797L1063 801L1063 803L1061 804L1060 800L1058 800L1051 804L1049 802L1049 791L1040 790L1043 787L1039 784L1043 776L1041 771L1036 769L1034 771L1031 770L1026 774L1022 774L1020 772L1014 773L1012 778L1004 781L1003 788L1006 789L1005 792L997 800z"/></g></svg>